<?xml version="1.0" standalone="no"?>
<!DOCTYPE svg PUBLIC "-//W3C//DTD SVG 20010904//EN"
 "http://www.w3.org/TR/2001/REC-SVG-20010904/DTD/svg10.dtd">
<svg version="1.0" xmlns="http://www.w3.org/2000/svg"
 width="3268.000000pt" height="3268.000000pt" viewBox="0 0 3268.000000 3268.000000"
 preserveAspectRatio="xMidYMid meet">
<metadata>
Created by potrace 1.11, written by Peter Selinger 2001-2013
</metadata>
<g transform="translate(0.000000,3268.000000) scale(0.100000,-0.100000)"
fill="#000000" stroke="none">
<path d="M15918 31105 c-1 -1 -88 -6 -193 -10 -104 -4 -210 -8 -235 -10 -25
-2 -99 -6 -165 -10 -66 -4 -127 -9 -135 -10 -8 -2 -64 -6 -125 -11 -60 -4
-112 -8 -115 -9 -3 -1 -45 -5 -95 -9 -49 -5 -97 -10 -105 -11 -8 -2 -46 -6
-85 -10 -69 -7 -80 -8 -160 -19 -22 -3 -62 -8 -90 -11 -27 -3 -77 -10 -110
-15 -33 -5 -80 -12 -105 -15 -809 -112 -1767 -341 -2576 -616 -209 -71 -593
-209 -649 -234 -16 -8 -103 -43 -192 -79 -768 -310 -1577 -726 -2303 -1184
-122 -77 -508 -335 -669 -447 -193 -136 -882 -667 -911 -704 -3 -4 -32 -29
-65 -56 -71 -58 -286 -244 -300 -259 -6 -6 -33 -31 -60 -55 -317 -281 -827
-794 -1125 -1131 -51 -58 -107 -121 -124 -140 -30 -34 -120 -139 -161 -189
-11 -13 -25 -29 -31 -35 -33 -36 -359 -446 -463 -585 -248 -329 -557 -780
-745 -1086 -38 -60 -77 -122 -87 -137 -10 -15 -19 -29 -19 -32 0 -3 -38 -68
-85 -146 -47 -78 -85 -142 -85 -144 0 -2 -34 -63 -75 -136 -155 -272 -404
-762 -538 -1060 -161 -355 -379 -888 -447 -1090 -5 -14 -40 -117 -80 -230
-108 -311 -245 -764 -325 -1075 -137 -532 -271 -1201 -329 -1652 -4 -24 -8
-62 -12 -85 -3 -24 -9 -70 -14 -103 -5 -33 -11 -89 -15 -125 -3 -36 -8 -76
-10 -90 -2 -14 -7 -54 -10 -90 -3 -36 -8 -81 -10 -100 -5 -39 -12 -121 -20
-225 -3 -38 -8 -90 -10 -115 -2 -25 -7 -88 -10 -140 -4 -52 -8 -117 -10 -145
-27 -406 -26 -1346 0 -1690 2 -27 7 -95 10 -150 7 -121 13 -197 25 -335 15
-158 37 -366 45 -425 2 -16 7 -57 10 -90 4 -33 8 -67 10 -75 2 -8 7 -40 10
-70 3 -30 8 -66 10 -80 3 -14 14 -89 25 -165 11 -77 25 -165 30 -195 5 -30 12
-71 15 -90 27 -162 101 -536 135 -685 134 -581 230 -928 391 -1415 213 -647
461 -1256 760 -1865 224 -457 430 -827 727 -1310 72 -117 351 -539 416 -629
167 -234 270 -376 354 -486 89 -117 340 -434 388 -490 12 -14 81 -94 153 -179
73 -85 153 -178 179 -206 26 -29 81 -90 122 -135 181 -201 589 -616 781 -795
115 -107 279 -257 329 -301 25 -21 50 -44 55 -50 22 -24 351 -299 549 -458
959 -773 2062 -1442 3224 -1958 699 -310 1606 -623 2292 -793 375 -92 531
-126 985 -215 48 -9 366 -62 450 -75 93 -14 203 -29 290 -40 28 -4 65 -8 83
-11 17 -2 47 -6 65 -8 17 -3 59 -7 92 -11 33 -3 74 -8 90 -10 17 -2 62 -6 100
-10 39 -3 84 -8 100 -10 17 -2 66 -6 110 -10 44 -4 95 -8 112 -10 18 -2 90 -6
160 -10 71 -4 138 -8 150 -10 165 -25 1418 -25 1683 0 19 2 93 6 163 10 71 3
136 8 145 10 9 1 64 6 122 10 58 3 112 8 120 10 8 2 51 6 95 10 44 3 91 8 105
10 14 2 52 7 85 10 54 5 177 20 245 30 14 2 45 6 70 9 75 9 134 17 160 21 14
2 99 16 190 30 91 14 215 35 275 46 61 11 133 24 160 29 244 42 799 170 1150
266 651 178 1517 486 2023 720 41 19 75 34 77 34 2 0 39 16 82 36 399 184 785
379 1117 568 54 31 100 56 102 56 2 0 113 66 246 146 677 408 1252 816 1858
1318 80 66 159 132 175 147 17 14 71 62 120 105 50 43 92 81 95 84 3 3 30 27
60 54 242 217 700 668 910 895 58 63 110 119 115 125 17 18 248 280 275 312
116 134 246 291 361 435 49 63 96 121 103 130 25 30 302 403 347 467 24 35 53
75 65 90 11 15 77 110 146 212 365 542 631 991 943 1595 71 138 315 648 315
659 0 3 13 33 29 68 102 220 265 629 371 923 17 50 36 99 40 110 12 28 111
322 160 480 173 547 356 1290 444 1800 9 50 18 100 20 111 5 24 6 29 40 249
23 150 60 414 71 515 3 25 7 63 10 85 20 168 50 506 60 675 4 58 8 128 10 155
27 388 26 1344 0 1690 -2 28 -7 91 -10 140 -8 114 -14 195 -20 265 -2 30 -7
87 -10 125 -3 39 -8 86 -10 105 -3 19 -7 60 -10 90 -3 30 -7 71 -10 90 -6 44
-12 99 -20 170 -4 30 -8 66 -10 80 -2 14 -9 63 -15 110 -10 78 -55 372 -65
430 -3 14 -12 66 -20 115 -9 50 -20 113 -26 140 -5 28 -21 109 -35 180 -75
384 -173 789 -285 1180 -95 332 -218 704 -347 1055 -60 162 -212 544 -257 645
-7 17 -35 82 -63 145 -116 268 -315 681 -448 930 -36 69 -91 172 -122 230 -68
128 -229 409 -289 505 -24 38 -92 147 -150 240 -219 350 -489 739 -751 1085
-112 147 -357 457 -371 470 -4 3 -53 61 -111 130 -57 69 -107 127 -110 130 -3
3 -34 39 -70 80 -36 41 -84 95 -107 120 -23 25 -51 56 -63 70 -122 141 -630
658 -805 819 -44 41 -107 100 -140 131 -60 57 -358 319 -451 396 -27 23 -78
66 -114 96 -36 30 -135 110 -220 177 -85 68 -164 131 -175 140 -45 36 -409
304 -535 393 -428 301 -931 615 -1400 871 -178 97 -649 337 -795 404 -177 82
-342 155 -470 210 -71 30 -143 61 -160 69 -125 56 -624 243 -910 340 -407 139
-1040 319 -1365 389 -8 2 -107 24 -220 49 -113 25 -221 48 -240 51 -19 3 -66
12 -105 20 -58 12 -365 66 -455 80 -38 6 -439 63 -490 70 -40 5 -134 15 -270
30 -25 3 -63 7 -85 10 -22 2 -69 7 -105 10 -36 3 -85 8 -110 10 -25 2 -92 7
-150 10 -58 4 -116 8 -129 10 -13 3 -92 7 -175 10 -83 4 -169 9 -191 11 -45 5
-1031 14 -1037 9z"/>
</g>
</svg>
