<?xml version="1.0" encoding="UTF-8" standalone="no"?>
<svg
   xmlns:dc="http://purl.org/dc/elements/1.1/"
   xmlns:cc="http://creativecommons.org/ns#"
   xmlns:rdf="http://www.w3.org/1999/02/22-rdf-syntax-ns#"
   xmlns:svg="http://www.w3.org/2000/svg"
   xmlns="http://www.w3.org/2000/svg"
   xmlns:sodipodi="http://sodipodi.sourceforge.net/DTD/sodipodi-0.dtd"
   xmlns:inkscape="http://www.inkscape.org/namespaces/inkscape"
   width="222.1405mm"
   height="230.21611mm"
   viewBox="0 0 222.1405 230.21611"
   version="1.1"
   id="svg8"
   sodipodi:docname="idea.svg"
   inkscape:version="1.0 (4035a4f, 2020-05-01)">
  <defs
     id="defs2" />
  <sodipodi:namedview
     id="base"
     pagecolor="#ffffff"
     bordercolor="#666666"
     borderopacity="1.0"
     inkscape:pageopacity="0.0"
     inkscape:pageshadow="2"
     inkscape:zoom="0.5"
     inkscape:cx="-212.66065"
     inkscape:cy="639.62921"
     inkscape:document-units="mm"
     inkscape:current-layer="layer1"
     inkscape:document-rotation="0"
     showgrid="false"
     inkscape:snap-smooth-nodes="true"
     inkscape:snap-intersection-paths="true"
     inkscape:window-width="1920"
     inkscape:window-height="1023"
     inkscape:window-x="0"
     inkscape:window-y="0"
     inkscape:window-maximized="1"
     fit-margin-top="0"
     fit-margin-left="0"
     fit-margin-right="0"
     fit-margin-bottom="0" />
  <metadata
     id="metadata5">
    <rdf:RDF>
      <cc:Work
         rdf:about="">
        <dc:format>image/svg+xml</dc:format>
        <dc:type
           rdf:resource="http://purl.org/dc/dcmitype/StillImage" />
        <dc:title></dc:title>
      </cc:Work>
    </rdf:RDF>
  </metadata>
  <g
     inkscape:label="Layer 1"
     inkscape:groupmode="layer"
     id="layer1"
     transform="translate(-136.51925,-75.790257)">
    <path
       style="fill:none;stroke:#ffffff;stroke-width:15;stroke-linecap:round;stroke-linejoin:round;stroke-miterlimit:4;stroke-dasharray:none;stroke-opacity:1"
       d="m 234.81899,280.17274 h 25.54452"
       id="path1107" />
    <path
       id="path1137"
       d="m 241.43016,298.50637 h 12.32218"
       style="fill:none;stroke:#ffffff;stroke-width:15;stroke-linecap:round;stroke-linejoin:round;stroke-miterlimit:4;stroke-dasharray:none;stroke-opacity:1" />
    <path
       transform="matrix(0.26458333,0,0,0.26458333,136.51925,75.790257)"
       d="m 419.79883,196.24805 c -123.98736,0 -225.09571,101.14096 -225.09571,225.12695 0,71.27324 33.82727,138.32452 91.03126,180.74805 a 9.0376712,9.0376712 0 0 1 0.20898,0.15234 c 0.6197,0.48811 0.99441,0.81801 0.89648,0.74609 a 9.0376712,9.0376712 0 0 1 0.26954,0.17969 c 0.1071,0.0612 0.0772,0.0131 0.17968,0.0918 a 9.0376712,9.0376712 0 0 1 0.32813,0.20898 c 5.92008,4.29692 12.22259,8.22648 18.76758,12.04493 a 9.0376712,9.0376712 0 0 1 2.15234,1.73242 c 15.28602,16.9101 28.36133,49.1391 28.36133,87.23632 -0.003,9.88083 5.34618,19.11557 13.92578,24.14649 a 9.0376712,9.0376712 0 0 1 0.21094,0.12305 c 4.46446,2.74658 9.52967,4.27588 14.67382,4.27343 h 108.09375 c 15.26261,-0.006 28.02709,-12.77074 28.03321,-28.0332 0,-38.04474 13.01175,-70.17063 28.24023,-87.08594 a 9.0376712,9.0376712 0 0 1 2.24219,-1.79297 c 4.39592,-2.51691 8.61133,-4.95491 12.64062,-7.65039 2.16162,-1.44597 4.23844,-2.9386 6.33594,-4.45312 a 9.0376712,9.0376712 0 0 1 0.12305,-0.0918 l 0.59765,-0.41797 a 9.0376712,9.0376712 0 0 1 0.0313,-0.0293 c -0.12242,0.0918 -0.0455,0.0293 0.29882,-0.21094 a 9.0376712,9.0376712 0 0 1 0.0293,-0.0293 l 0.26953,-0.17969 0.0312,-0.0312 c 0.12241,-0.0918 0.23042,-0.17313 0.35742,-0.26953 a 9.0376712,9.0376712 0 0 1 0.35938,-0.29687 c 57.47222,-42.40042 91.50766,-109.63606 91.50781,-181.10547 0,-122.79126 -99.27297,-222.82087 -221.62891,-224.73828 a 9.0376712,9.0376712 0 0 1 -1.79296,-0.21094 c -0.54932,-0.12241 -1.11105,-0.17926 -1.67383,-0.17773 z m 0,56.0957 c 93.67866,0 169.0021,75.35106 169.00195,169.03125 3.1e-4,54.03921 -25.75355,104.74193 -69.42383,136.57617 -1.89491,1.38018 -3.75923,2.69252 -5.58789,3.91602 -4.56683,3.05506 -10.66173,6.85314 -28.24218,22.74219 -17.87225,16.15283 -30.00583,47.79464 -35.5625,84.69531 a 9.0376712,9.0376712 0 0 1 -8.93555,7.67969 h -43.36524 a 9.0376712,9.0376712 0 0 1 -8.93554,-7.67969 c -5.54566,-37.04174 -17.82458,-68.96684 -36.45899,-85.5625 -18.61206,-16.57592 -26.11598,-21.39454 -32.36718,-25.97071 -43.51115,-31.85184 -69.15415,-82.47815 -69.1543,-136.39648 0,-93.67881 75.35243,-169.03125 169.03125,-169.03125 z M 285.28516,602.27148 v 0.002 c 0.003,8.2e-4 0.0306,0.0139 0.0351,0.0156 10e-4,2e-4 -0.0376,-0.0184 -0.0351,-0.0176 z m 0.0351,0.0176 c -0.0436,-0.007 0.67396,0.36228 1.25,0.64063 -0.0459,-0.0306 -0.23981,-0.18122 -0.23828,-0.17969 0.009,0.005 -0.88146,-0.41024 -1.01172,-0.46094 z"
       style="color:#000000;font-style:normal;font-variant:normal;font-weight:normal;font-stretch:normal;font-size:medium;line-height:normal;font-family:sans-serif;font-variant-ligatures:normal;font-variant-position:normal;font-variant-caps:normal;font-variant-numeric:normal;font-variant-alternates:normal;font-variant-east-asian:normal;font-feature-settings:normal;font-variation-settings:normal;text-indent:0;text-align:start;text-decoration:none;text-decoration-line:none;text-decoration-style:solid;text-decoration-color:#000000;letter-spacing:normal;word-spacing:normal;text-transform:none;writing-mode:lr-tb;direction:ltr;text-orientation:mixed;dominant-baseline:auto;baseline-shift:baseline;text-anchor:start;white-space:normal;shape-padding:0;shape-margin:0;inline-size:0;clip-rule:nonzero;display:inline;overflow:visible;visibility:visible;isolation:auto;mix-blend-mode:normal;color-interpolation:sRGB;color-interpolation-filters:linearRGB;solid-color:#000000;solid-opacity:1;vector-effect:none;fill:#ffffff;fill-opacity:1;fill-rule:nonzero;stroke:none;stroke-width:40.4864;stroke-linecap:round;stroke-linejoin:round;stroke-miterlimit:4;stroke-dasharray:none;stroke-dashoffset:0;stroke-opacity:1;color-rendering:auto;image-rendering:auto;shape-rendering:auto;text-rendering:auto;enable-background:accumulate;stop-color:#000000"
       id="path1084" />
    <path
       id="path1139"
       d="m 322.56134,186.86051 h 28.59842"
       style="fill:none;stroke:#ffffff;stroke-width:15;stroke-linecap:round;stroke-linejoin:round;stroke-miterlimit:4;stroke-dasharray:none;stroke-opacity:1" />
    <path
       style="fill:none;stroke:#ffffff;stroke-width:15;stroke-linecap:round;stroke-linejoin:round;stroke-miterlimit:4;stroke-dasharray:none;stroke-opacity:1"
       d="m 144.01925,186.86051 h 28.59842"
       id="path1141" />
    <path
       style="fill:none;stroke:#ffffff;stroke-width:15;stroke-linecap:round;stroke-linejoin:round;stroke-miterlimit:4;stroke-dasharray:none;stroke-opacity:1"
       d="m 300.60259,239.87359 20.22214,20.22214"
       id="path1147" />
    <path
       id="path1149"
       d="m 174.35427,113.62527 20.22214,20.22214"
       style="fill:none;stroke:#ffffff;stroke-width:15;stroke-linecap:round;stroke-linejoin:round;stroke-miterlimit:4;stroke-dasharray:none;stroke-opacity:1" />
    <path
       id="path1165"
       d="m 194.57642,239.8736 -20.22214,20.22214"
       style="fill:none;stroke:#ffffff;stroke-width:15;stroke-linecap:round;stroke-linejoin:round;stroke-miterlimit:4;stroke-dasharray:none;stroke-opacity:1" />
    <path
       style="fill:none;stroke:#ffffff;stroke-width:15;stroke-linecap:round;stroke-linejoin:round;stroke-miterlimit:4;stroke-dasharray:none;stroke-opacity:1"
       d="M 320.82474,113.62528 300.6026,133.84742"
       id="path1167" />
    <path
       style="fill:none;stroke:#ffffff;stroke-width:15;stroke-linecap:round;stroke-linejoin:round;stroke-miterlimit:4;stroke-dasharray:none;stroke-opacity:1"
       d="M 247.5895,111.88868 V 83.290257"
       id="path1173" />
  </g>
</svg>
