<?xml version="1.0" encoding="UTF-8" standalone="no"?>
<!-- Created with Inkscape (http://www.inkscape.org/) -->

<svg
   xmlns:dc="http://purl.org/dc/elements/1.1/"
   xmlns:cc="http://creativecommons.org/ns#"
   xmlns:rdf="http://www.w3.org/1999/02/22-rdf-syntax-ns#"
   xmlns:svg="http://www.w3.org/2000/svg"
   xmlns="http://www.w3.org/2000/svg"
   xmlns:sodipodi="http://sodipodi.sourceforge.net/DTD/sodipodi-0.dtd"
   xmlns:inkscape="http://www.inkscape.org/namespaces/inkscape"
   id="svg16"
   width="255.2858mm"
   height="217.18272mm"
   version="1.1"
   viewBox="0 0 255.2858 217.18273"
   sodipodi:docname="clean-logo.svg"
   inkscape:version="0.92.4 (5da689c313, 2019-01-14)">
  <defs
     id="defs9" />
  <sodipodi:namedview
     pagecolor="#ffffff"
     bordercolor="#666666"
     borderopacity="1"
     objecttolerance="10"
     gridtolerance="10"
     guidetolerance="10"
     inkscape:pageopacity="0"
     inkscape:pageshadow="2"
     inkscape:window-width="1920"
     inkscape:window-height="1023"
     id="namedview7"
     showgrid="false"
     inkscape:zoom="0.45076903"
     inkscape:cx="15.38485"
     inkscape:cy="312.28569"
     inkscape:window-x="0"
     inkscape:window-y="0"
     inkscape:window-maximized="1"
     inkscape:current-layer="svg16"
     fit-margin-top="0"
     fit-margin-left="0"
     fit-margin-right="0"
     fit-margin-bottom="0" />
  <metadata
     id="metadata2">
    <rdf:RDF>
      <cc:Work
         rdf:about="">
        <dc:format>image/svg+xml</dc:format>
        <dc:type
           rdf:resource="http://purl.org/dc/dcmitype/StillImage" />
        <dc:title />
      </cc:Work>
    </rdf:RDF>
  </metadata>
  <g
     id="g818">
    <path
       d="m 77.93127,0.131026 c -0.006,3.9e-5 -0.0112,2.98e-4 -0.0167,3.37e-4 -2.5502,0.008 -5.0187,0.21556 -7.4251,0.62677 -4.4614,0.74498 -8.6536,2.1572 -12.672,4.265803 -13.717,7.1962 -22.355,20.365 -23.646,36.048 -0.83838,10.186 2.5287,21.453 8.915,29.833 1.7286,2.2683 4.2533,4.823 6.9134,7.0639 0.003,0.003 0.007,0.006 0.0101,0.008 0.30805,0.26719 0.59426,0.50536 0.84998,0.70522 0.0407,0.0318 0.0819,0.0625 0.12267,0.0942 1.1614,0.93242 2.3327,1.7947 3.4617,2.5326 2.7569,1.8017 5.8802,3.282 9.1848,4.4031 2.8322,0.9932 5.7824,1.7011 8.8533,2.1223 1.849,0.25363 3.7538,0.37002 5.6818,0.35628 1.9282,0.0138 3.8327,-0.10264 5.6818,-0.35628 3.0708,-0.42121 6.0214,-1.1291 8.8533,-2.1223 3.3048,-1.1211 6.4282,-2.6014 9.1848,-4.4031 1.1308,-0.73908 2.3043,-1.6029 3.4677,-2.5372 0.0387,-0.03 0.0777,-0.0593 0.1163,-0.0895 0.25575,-0.19984 0.54228,-0.43801 0.85031,-0.70522 0.003,-0.003 0.007,-0.005 0.0101,-0.008 2.6603,-2.2412 5.185,-4.7958 6.9134,-7.0639 6.3865,-8.3805 9.7536,-19.648 8.915,-29.833 -1.291,-15.683 -9.9294,-28.852 -23.647,-36.048 -4.0193,-2.108703 -8.2112,-3.521203 -12.673,-4.266103 -2.4063,-0.41107 -4.8743,-0.61841 -7.4238,-0.62643 -0.0835,-5.9e-4 -0.16642,-1.75e-4 -0.24971,-3.38e-4 -0.0778,1.5e-4 -0.15529,-5.18e-4 -0.23328,0 z m 0.23329,17.067 c 7.32,0.009 13.812,2.6892 18.949,7.8221 12.541,12.533 9.9735,33.185 -5.2645,42.343 -4.0519,2.4353 -8.8209,3.7141 -13.684,3.7288 -4.8631,-0.0146 -9.6323,-1.2934 -13.684,-3.7288 -15.238,-9.1582 -17.806,-29.809 -5.2645,-42.343 5.1358,-5.1328 11.629,-7.8123 18.949,-7.8221 z m -0.0385,82.767 c -5.0472,-0.002 -7.2195,0.0918 -9.6102,0.415274 -1.1767,0.15922 -2.3411,0.34206 -3.4952,0.54499 -3.3734,0.55993 -6.7402,1.3698 -10.06,2.4116 -11.87,3.6466 -22.36,9.8904 -31.377,18.695 -13.242,12.93 -21.074,28.974 -23.291,47.717 -0.20308,1.7162 -0.29963,5.2165 -0.29227,8.5894 -6.5e-4,0.68881 0.003,1.364 0.0161,2.005 2e-5,0.001 -3e-5,0.002 0,0.003 0.0363,2.3651 0.1283,4.4576 0.27618,5.5337 1.2649,9.1835 4.1086,15.555 9.105,20.401 4.775,4.6314 11.252,7.5717 20.767,9.2392 0.24822,0.0447 0.49917,0.0877 0.75081,0.13037 0.41755,0.0708 0.83799,0.13994 1.265,0.20512 0.36108,0.0551 0.78532,0.11357 1.2579,0.17363 6.2e-4,7e-5 10e-4,2.6e-4 0.002,3.3e-4 2.6046,0.35476 5.4202,0.62826 8.4629,0.82988 1.2853,0.0977 2.4622,0.1738 3.3514,0.20881 h 10e-4 c 2.3844,0.0939 17.585,0.12577 32.91,0.11093 15.324,0.0148 30.525,-0.0171 32.909,-0.11093 h 0.001 c 0.88923,-0.035 2.0662,-0.11107 3.3514,-0.20881 3.0435,-0.20168 5.8596,-0.47536 8.4648,-0.83021 3.5e-4,-5e-5 6.5e-4,4e-5 0.001,0 0.47214,-0.06 0.89642,-0.11855 1.2572,-0.17363 0.42694,-0.0652 0.84739,-0.13432 1.265,-0.20512 0.25161,-0.0427 0.50256,-0.0857 0.75082,-0.13037 9.5149,-1.6675 15.992,-4.608 20.767,-9.2392 4.9966,-4.8463 7.8402,-11.218 9.105,-20.401 0.14739,-1.0727 0.23901,-3.1548 0.2755,-5.5105 0.0131,-0.64905 0.0177,-1.3327 0.0167,-2.0311 0.007,-3.3729 -0.0892,-6.8732 -0.29226,-8.5894 -2.2181,-18.743 -10.049,-34.787 -23.291,-47.717 -9.0174,-8.8047 -19.507,-15.048 -31.377,-18.695 -3.3202,-1.0417 -6.687,-1.8516 -10.06,-2.4116 -1.154,-0.20293 -2.3185,-0.38577 -3.4952,-0.54499 -2.3908,-0.3235 -4.5628,-0.417224 -9.6102,-0.415284 -0.0139,1e-5 -0.0243,0 -0.0382,0 -0.014,0 -0.0245,1e-5 -0.0385,0 z m 0.0385,16.999004 c 2.5326,6.5e-4 5.0604,0.0865 6.5969,0.25741 10.564,1.1753 20.798,5.1281 29.309,11.321 0.22798,0.16589 0.44362,0.31765 0.64621,0.45751 4.9872,3.7205 9.439,8.2197 13.183,13.394 1e-4,1.5e-4 -1e-4,5.2e-4 0,6.5e-4 9e-5,0.0152 0.003,0.0274 0.008,0.0365 0.0713,0.11534 0.79758,1.2124 1.6138,2.4377 1.7604,2.6424 4.9918,9.0849 6.1595,12.281 1.0805,2.9568 2.4708,8.4778 2.9713,11.799 0.51884,3.4431 0.71119,11.523 0.34859,14.641 -0.55396,4.7651 -1.8748,8.2942 -3.8394,10.259 -2.7345,2.7346 -7.8052,4.4823 -16.064,5.4834 -1.7536,0.20339 -3.6648,0.37532 -5.7726,0.51886 -2.6624,0.18128 -18.897,0.27387 -35.16,0.27651 -16.264,-0.003 -32.499,-0.0952 -35.161,-0.27651 -2.1074,-0.14352 -4.018,-0.31553 -5.7713,-0.51886 -8.2586,-1.0011 -13.33,-2.7488 -16.064,-5.4834 -1.9647,-1.9647 -3.2854,-5.4935 -3.8394,-10.259 -0.36258,-3.1188 -0.17025,-11.199 0.34858,-14.641 0.50045,-3.3211 1.8908,-8.8417 2.9713,-11.799 1.1677,-3.1954 4.399,-9.6381 6.1595,-12.281 0.81632,-1.2253 1.5422,-2.3224 1.6135,-2.4377 0.006,-0.009 0.009,-0.0213 0.009,-0.0365 10e-5,-1.5e-4 -1.1e-4,-5.3e-4 0,-6.5e-4 3.7449,-5.1757 8.1976,-9.6751 13.186,-13.396 0.20165,-0.13926 0.41616,-0.29054 0.64286,-0.4555 8.5109,-6.193 18.744,-10.146 29.309,-11.321 1.5365,-0.17094 4.0644,-0.25655 6.5969,-0.25742 z"
       id="path6"
       inkscape:connector-curvature="0"
       style="fill:#ffffff;stroke-width:0.16099;fill-opacity:1" />
    <path
       d="m 144.21127,216.93503 c -3.2441,-0.12772 -10.186,-0.77151 -13.074,-1.2125 -20.724,-3.1641 -30.354,-12.903 -32.019,-32.379 -0.29408,-3.4413 -0.1739,-10.413 0.24063,-13.957 1.3377,-11.439 5.1056,-22.541 10.872,-32.034 2.188,-3.6019 5.4548,-7.5056 5.7627,-7.3304 0.82346,0.46759 4.8149,4.0242 6.5761,5.9635 2.4942,2.6305 5.3687,6.0145 5.185,6.3117 -0.0713,0.11534 -1.1735,1.2122 -1.9898,2.4376 -1.7604,2.6424 -4.9919,9.0849 -6.1595,12.281 -1.0805,2.9568 -2.4707,8.4778 -2.9712,11.799 -0.51883,3.4431 -0.71119,11.523 -0.34864,14.641 0.55398,4.7651 1.8748,8.2942 3.8394,10.259 3.2971,3.2971 9.9858,5.1606 21.57,6.0092 4.9642,0.36367 65.229,0.35773 70.587,-0.007 8.9759,-0.6112 14.501,-1.7172 18.612,-3.7257 4.3431,-2.1218 6.3369,-5.6249 7.1417,-12.548 0.35329,-3.0389 0.15626,-11.386 -0.34532,-14.628 -0.50414,-3.2591 -1.9504,-8.9986 -2.9695,-11.784 -1.2386,-3.3852 -4.4354,-9.7004 -6.4282,-12.699 -10.186,-15.326 -26.356,-25.226 -44.498,-27.244 -3.0886,-0.3436 -10.182,-0.3436 -13.271,0 -10.564,1.1753 -20.798,5.1282 -29.309,11.321 -0.79382,0.57762 -1.719,0.96777 -1.8056,0.96777 -0.0865,0 -0.77416,-0.74309 -1.4833,-1.6208 -1.8263,-2.2604 -6.1996,-6.7506 -8.4888,-8.7158 -1.0686,-0.91737 -1.7607,-1.4674 -1.7607,-1.555 0,-0.0875 1.2942,-1.2378 2.8035,-2.355 9.9702,-7.3797 21.767,-12.417 33.637,-14.363 4.9382,-0.809514 6.6663,-0.933594 13.042,-0.936194 5.0472,-0.002 7.2195,0.0918 9.6102,0.415274 17.569,2.3772 32.621,9.6304 44.932,21.651 13.242,12.93 21.074,28.974 23.291,47.717 0.39211,3.3134 0.39154,13.282 0,16.131 -1.2649,9.1835 -4.1086,15.555 -9.105,20.401 -6.818,6.6124 -17.096,9.7815 -34.749,10.714 -3.8098,0.20122 -62.058,0.26516 -66.929,0.0735 z m 27.229,-129.230004 c -8.0173,-1.0998 -15.217,-4.1472 -21.623,-9.1523 -2.0689,-1.6166 -6.1259,-5.7163 -7.6969,-7.778 -6.3925,-8.3883 -9.7685,-19.691 -8.9182,-29.854 1.3441,-16.058 10.483,-29.611 24.623,-36.517 6.5748,-3.2112 13.387,-4.6342 20.936,-4.3735 6.7869,0.23442 12.925,1.8303 18.707,4.8637 13.717,7.1962 22.355,20.366 23.646,36.048 0.83837,10.186 -2.5288,21.453 -8.915,29.833 -2.6884,3.5278 -7.3006,7.7527 -11.358,10.404 -8.1782,5.3447 -19.573,7.874 -29.402,6.5255 z m 10.702,-17.181 c 5.1815,-0.9262 10.186,-3.5742 14.009,-7.4122 10.669,-10.712 10.667,-27.559 -0.005,-38.224 -5.1447,-5.1417 -11.651,-7.8221 -18.987,-7.8221 -7.336,0 -13.842,2.6805 -18.987,7.8221 -12.541,12.533 -9.9735,33.185 5.2646,42.343 5.4441,3.272 12.183,4.4581 18.705,3.2923 z"
       id="path8"
       inkscape:connector-curvature="0"
       style="fill:#ffffff;stroke-width:0.16099;fill-opacity:1" />
  </g>
</svg>
